<svg width="2052" height="418" viewBox="0 0 2052 418" fill="none" xmlns="http://www.w3.org/2000/svg">
<g clip-path="url(#clip0_2357_3448)">
<path d="M458.025 414.706C456.748 418.581 456.748 418.581 452.801 416.954C416.016 401.297 379.218 385.654 342.406 370.023C340.588 369.248 340.278 368.356 340.627 366.535C354.892 291.611 369.08 216.686 383.19 141.762L383.655 139.088C383.655 138.313 383.926 137.499 384.08 136.724C391.2 99.2102 398.307 61.7481 405.401 24.3376C406.716 17.4007 408.419 10.5412 409.27 3.48801C410.663 -0.387384 410.663 -0.387396 414.533 1.35653C451.163 16.8581 487.794 32.4372 524.425 48.0938C526.437 48.9464 527.133 49.6827 526.669 51.9692C515.448 110.798 504.291 169.639 493.198 228.493C490.025 245.158 486.93 261.861 483.796 278.525C482.828 283.408 481.861 288.291 480.932 293.174C474.638 326.321 468.357 359.443 462.088 392.539C460.656 399.747 458.915 407.149 458.025 414.706Z" fill="#FCFCFC"/>
<path d="M409.231 3.17773C408.574 10.231 406.871 17.0904 405.362 24.0273C398.32 61.5412 391.213 99.0033 384.041 136.414C384.041 137.189 383.77 138.003 383.616 138.778C379.721 140.705 375.982 142.934 372.433 145.443C305.698 187.53 238.938 229.578 172.151 271.588L169.636 273.293L222.725 296.041V296.623L206.241 298.173L142.279 303.792L80.3681 309.45C58.0801 311.465 35.7535 313.325 13.4656 315.573C10.5248 315.883 10.0604 314.837 9.82828 312.279C6.9907 279.829 4.11442 247.366 1.19945 214.89C0.851197 211.015 0.657732 207.14 0.1934 203.497C-0.116155 201.094 0.657732 201.172 2.47637 201.947L53.4755 223.726C54.2613 224.133 55.1446 224.312 56.0263 224.243C56.908 224.175 57.7532 223.862 58.4671 223.339L281.85 82.8946L407.335 4.10782C407.954 3.79779 408.612 3.48777 409.231 3.17773Z" fill="#407AFD"/>
<path d="M458.025 414.706C458.915 406.955 460.656 399.747 461.894 392.268C468.137 359.12 474.418 325.998 480.738 292.903C481.667 288.02 482.635 283.137 483.602 278.254C484.569 277.789 485.575 277.362 486.465 276.82L692.706 147.149L695.221 145.483L641.862 122.695V122.191L672.585 119.362L742.467 113.007L811.266 106.767C824.267 105.566 837.268 104.326 850.27 103.202C855.416 102.737 854.526 102.272 854.952 107.077C857.467 134.748 859.827 162.418 862.265 190.088C863.039 198.769 863.838 207.45 864.664 216.131C864.702 216.479 864.702 216.83 864.664 217.177C863.619 217.41 862.884 216.751 862.071 216.441C845.046 209.194 828.059 201.986 811.072 194.661C810.363 194.353 809.583 194.248 808.818 194.358C808.053 194.467 807.333 194.787 806.738 195.281L525.43 372.503L460.076 413.66C459.457 413.97 458.76 414.319 458.025 414.706Z" fill="#407AFD"/>
<path d="M1050.9 313.597L1042.04 329.408C1034.3 343.011 1026.79 356.536 1019.29 370.255C1018.97 371.006 1018.43 371.639 1017.73 372.064C1017.04 372.488 1016.23 372.682 1015.42 372.619C1005.9 372.619 996.38 372.619 986.861 372.619C986.109 372.686 985.355 372.512 984.708 372.122C984.061 371.732 983.555 371.146 983.262 370.449C973.176 352.363 963.025 334.162 952.81 315.844C952.32 314.896 951.649 314.054 950.836 313.364V316.154C950.836 345.013 950.836 373.898 950.836 402.808C950.836 405.288 950.411 406.18 947.663 406.141C935.165 406.141 922.628 406.141 910.13 406.141C908.04 406.141 907.615 405.56 907.615 403.583C907.615 349.328 907.615 295.008 907.615 240.623C907.615 238.22 908.35 237.833 910.517 237.833C923.866 237.833 937.177 237.833 950.527 237.833C951.343 237.772 952.156 237.972 952.852 238.404C953.547 238.835 954.088 239.477 954.396 240.235C969.461 268.397 984.733 296.532 1000.21 324.641L1001.14 326.308C1002.11 325.882 1002.26 324.913 1002.69 324.138C1017.83 296.157 1032.95 268.177 1048.04 240.197C1048.35 239.438 1048.89 238.797 1049.58 238.365C1050.28 237.933 1051.09 237.733 1051.91 237.794C1065.26 237.794 1078.57 237.794 1091.92 237.794C1094.16 237.794 1095.01 238.143 1095.01 240.739C1095.01 294.995 1095.01 349.25 1095.01 403.506C1095.01 405.676 1094.47 406.218 1092.34 406.218C1079.65 406.218 1066.96 406.218 1054.27 406.218C1052.06 406.218 1051.56 405.598 1051.6 403.506C1051.6 374.595 1051.6 345.711 1051.6 316.852V313.868L1050.9 313.597Z" fill="#407AFD"/>
<path d="M1294.06 322.122C1294.06 294.969 1294.06 267.841 1294.06 240.739C1294.06 238.569 1294.48 237.832 1296.84 237.832C1329.11 237.832 1361.42 237.832 1393.58 237.832C1402.12 237.622 1410.64 238.934 1418.73 241.708C1424.09 243.612 1428.88 246.847 1432.66 251.11C1436.44 255.373 1439.07 260.525 1440.32 266.084C1442.02 272.963 1442.79 280.042 1442.6 287.127C1442.6 296.273 1442.6 305.497 1442.33 314.643C1442.39 324.233 1439.5 333.609 1434.05 341.499C1430.18 346.655 1424.75 350.42 1418.57 352.234C1415.21 353.28 1415.17 353.242 1416.87 356.109L1443.57 403.195C1445.23 406.102 1445.23 406.102 1441.83 406.102C1428.52 406.102 1415.17 406.102 1401.86 406.102C1400.8 406.218 1399.74 405.991 1398.83 405.453C1397.91 404.915 1397.2 404.096 1396.79 403.118C1388.62 387.965 1380.23 372.929 1371.99 357.815C1371.71 357.155 1371.23 356.598 1370.62 356.223C1370.01 355.848 1369.29 355.673 1368.58 355.722C1358.98 355.722 1349.38 355.722 1339.75 355.722C1337.66 355.722 1337.2 356.458 1337.2 358.435C1337.2 373.239 1337.2 388.043 1337.2 402.847C1337.2 405.249 1336.7 406.141 1334.06 406.102C1321.64 406.102 1309.22 406.102 1296.8 406.102C1294.6 406.102 1293.94 405.598 1293.94 403.273C1294.29 376.261 1294.06 349.172 1294.06 322.122ZM1363.43 322.122C1371.17 322.122 1379.22 322.393 1387.08 322.122C1394.31 321.812 1398.14 318.247 1398.99 312.124C1400.05 302.572 1400.15 292.94 1399.3 283.368C1399.23 281.023 1398.46 278.754 1397.08 276.858C1395.7 274.963 1393.77 273.531 1391.56 272.75C1389.15 271.959 1386.6 271.643 1384.06 271.82C1369.28 271.82 1354.5 271.82 1339.71 271.82C1337.7 271.82 1337.08 272.401 1337.08 274.455C1337.08 289.517 1337.08 304.593 1337.08 319.681C1337.08 321.696 1337.62 322.355 1339.68 322.316C1347.65 321.967 1355.54 322.006 1363.43 322.006V322.122Z" fill="#407AFD"/>
<path d="M1629.19 321.929C1629.19 294.646 1629.19 267.389 1629.19 240.158C1629.19 238.221 1629.69 237.717 1631.59 237.717C1674.3 237.717 1717.02 237.717 1759.74 237.717C1761.83 237.717 1762.33 238.376 1762.3 240.352C1762.3 249.731 1762.3 259.07 1762.3 268.449C1762.3 271.006 1761.56 271.626 1759.08 271.626C1731.34 271.626 1703.6 271.626 1675.81 271.626C1673.14 271.626 1672.25 272.208 1672.29 275.076C1672.49 283.679 1672.29 292.321 1672.29 300.963C1672.29 303.211 1672.87 303.87 1675.16 303.87C1696.55 303.87 1717.95 303.87 1739.35 303.87C1743.22 303.87 1743.22 303.87 1743.22 307.745C1743.22 316.659 1743.22 325.572 1743.22 334.447C1743.22 337.392 1742.29 337.857 1739.7 337.857C1718.26 337.857 1696.86 337.857 1675.47 337.857C1672.91 337.857 1672.29 338.555 1672.33 341.035C1672.33 350.568 1672.33 360.141 1672.33 369.674C1672.33 372.038 1672.87 372.736 1675.31 372.736C1702.89 372.736 1730.46 372.736 1758.04 372.736C1762.22 372.736 1762.22 372.736 1762.22 377.076C1762.22 386.067 1762.22 395.058 1762.22 404.204C1762.22 406.258 1761.68 406.762 1759.63 406.762C1717.04 406.762 1674.47 406.762 1631.93 406.762C1629.77 406.762 1629.26 406.219 1629.26 404.049C1629.24 376.456 1629.21 349.083 1629.19 321.929Z" fill="#407AFD"/>
<path d="M1466.83 321.813C1466.83 294.685 1466.83 267.325 1466.83 240.081C1466.83 237.949 1467.56 237.717 1469.34 237.717C1481.95 237.717 1494.57 237.717 1507.15 237.717C1509.58 237.717 1510.2 238.492 1510.2 240.817C1510.2 260.62 1510.2 280.423 1510.2 300.227C1510.2 303.714 1510.2 303.714 1513.8 303.714C1518.87 303.714 1523.94 303.714 1529.01 303.714C1529.85 303.836 1530.7 303.678 1531.44 303.265C1532.18 302.852 1532.77 302.207 1533.11 301.428C1543.67 282.71 1554.31 264.03 1564.88 245.312C1569.13 237.755 1569.06 237.562 1577.61 237.562H1611.58C1614.37 237.562 1614.48 237.562 1613.05 240.236C1598.32 266.072 1583.57 291.985 1568.79 317.976C1568.29 318.71 1568.03 319.573 1568.03 320.456C1568.03 321.339 1568.29 322.203 1568.79 322.936C1583.49 349.599 1598.14 376.288 1612.74 403.002C1614.33 405.87 1614.29 405.87 1610.92 405.87C1597.77 405.87 1584.61 405.87 1571.49 405.87C1570.61 405.953 1569.72 405.749 1568.96 405.288C1568.2 404.828 1567.61 404.135 1567.28 403.312C1555.86 382.114 1544.33 360.915 1532.88 339.717C1532.54 338.887 1531.94 338.189 1531.17 337.728C1530.41 337.267 1529.51 337.068 1528.62 337.159C1523.47 337.159 1518.29 337.159 1513.14 337.159C1510.67 337.159 1509.89 337.702 1509.89 340.298C1509.89 360.915 1509.89 381.532 1509.89 402.305C1509.89 405.947 1509.89 405.947 1506.02 405.947C1493.72 405.947 1481.37 405.947 1469.03 405.947C1467.06 405.947 1466.44 405.521 1466.48 403.39C1466.86 376.301 1466.83 349.057 1466.83 321.813Z" fill="#407AFD"/>
<path d="M1258.3 406.064C1251.41 406.064 1244.53 406.064 1237.64 406.064C1236.89 406.189 1236.12 406.015 1235.5 405.581C1234.88 405.146 1234.45 404.485 1234.31 403.739C1231.33 395.213 1228.12 386.726 1225.14 378.161C1225 377.466 1224.6 376.849 1224.03 376.433C1223.46 376.017 1222.75 375.831 1222.04 375.914C1203.52 375.914 1185.01 375.914 1166.52 375.914C1164.47 375.914 1163.96 377.076 1163.42 378.626C1160.48 386.881 1157.46 395.136 1154.6 403.429C1154.46 404.262 1154 405.009 1153.32 405.514C1152.65 406.018 1151.8 406.243 1150.96 406.142C1137.19 406.142 1123.41 406.142 1109.64 406.142C1107.55 406.142 1106.74 406.142 1107.7 403.506C1120.83 369.093 1133.89 334.641 1146.86 300.15C1154.42 280.23 1161.93 260.311 1169.38 240.391C1169.53 239.647 1169.96 238.988 1170.58 238.549C1171.2 238.11 1171.96 237.923 1172.71 238.027C1187.23 238.027 1201.74 238.027 1216.24 238.027C1216.94 237.945 1217.65 238.13 1218.23 238.547C1218.8 238.963 1219.2 239.58 1219.34 240.275C1237.96 289.621 1256.59 338.942 1275.21 388.237C1277.11 393.237 1279.08 398.236 1280.9 403.235C1281.94 405.987 1281.9 406.103 1278.96 406.103L1258.3 406.064ZM1194.34 289.182C1194.02 289.605 1193.75 290.06 1193.53 290.539C1187.72 307.668 1181.92 324.836 1176.08 341.965C1175.3 344.252 1175.5 344.949 1178.13 344.91C1188.81 344.91 1199.49 344.91 1210.2 344.91C1213.34 344.91 1213.49 344.678 1212.49 341.694C1207.88 328.169 1203.36 314.566 1198.71 301.08C1197.53 297.017 1196.07 293.042 1194.34 289.182Z" fill="#407AFD"/>
<path d="M1841.58 237.91C1864.53 237.91 1887.47 237.91 1910.42 237.91C1912.7 237.91 1913.55 238.336 1913.51 240.855C1913.51 250.311 1913.51 259.729 1913.51 269.185C1913.51 271.239 1912.89 271.82 1910.88 271.82C1896.1 271.82 1881.32 271.82 1866.58 271.82C1863.71 271.82 1863.13 272.711 1863.13 275.385C1863.13 317.782 1863.13 360.192 1863.13 402.614C1863.13 406.49 1863.13 406.49 1859.5 406.49C1847.19 406.49 1834.85 406.49 1822.5 406.49C1820.41 406.49 1819.8 406.025 1819.8 403.777C1819.8 361.122 1819.8 318.493 1819.8 275.889C1819.8 272.014 1819.8 272.014 1815.93 272.014C1801.53 272.014 1787.1 272.014 1772.7 272.014C1770.11 272.014 1769.22 271.355 1769.26 268.642C1769.26 259.651 1769.26 250.66 1769.26 241.514C1769.26 237.988 1769.26 237.988 1773.13 237.988L1841.58 237.91Z" fill="#407AFD"/>
<path d="M1541.93 110.332C1541.93 85.9946 1541.93 61.6571 1541.93 37.3197C1541.92 36.4821 1542.17 35.662 1542.64 34.9693C1543.11 34.2766 1543.78 33.7445 1544.56 33.4443C1549.95 30.4863 1556.08 29.1412 1562.21 29.5689C1576.45 29.8789 1590.69 29.5689 1604.77 29.5689C1611.58 29.2611 1618.37 30.5068 1624.62 33.2118C1628.58 35.0367 1632.06 37.7817 1634.75 41.219C1637.44 44.6563 1639.27 48.6868 1640.1 52.9763C1641.04 57.6951 1641.44 62.5055 1641.3 67.3152C1641.3 78.3989 1641.53 89.4825 1641.03 100.527C1641.03 104.815 1640.09 109.051 1638.28 112.94C1636.48 116.829 1633.85 120.277 1630.58 123.043C1625.76 126.621 1620.09 128.878 1614.13 129.593C1611.04 130.135 1611 130.135 1612.78 132.693C1622.58 146.851 1632.41 160.984 1642.27 175.09C1643.54 176.873 1643.62 177.648 1641.45 178.578C1637 180.516 1632.59 182.453 1628.22 184.856C1627.86 185.144 1627.43 185.344 1626.98 185.442C1626.53 185.54 1626.06 185.533 1625.61 185.42C1625.16 185.308 1624.75 185.094 1624.39 184.794C1624.04 184.495 1623.76 184.118 1623.58 183.693C1611.97 166.758 1600.05 149.977 1588.33 133.042C1587.83 132.157 1587.08 131.434 1586.18 130.96C1585.28 130.486 1584.27 130.28 1583.26 130.368C1576.91 130.368 1570.57 130.368 1564.22 130.368C1562.44 130.368 1561.97 130.717 1561.97 132.616C1561.97 146.412 1561.97 160.208 1561.97 174.005C1561.97 175.439 1561.97 176.679 1560.35 177.415C1554.78 180.012 1549.24 182.686 1543.71 185.166C1542.24 185.864 1541.74 185.631 1541.74 183.81C1541.74 159.265 1541.74 134.721 1541.74 110.177L1541.93 110.332ZM1562.09 79.9878C1562.09 90.0638 1562.09 100.14 1562.09 110.216C1562.09 111.766 1562.36 112.27 1563.99 112.27C1578.03 112.27 1592.12 112.27 1606.16 112.27C1614.95 112.27 1620.52 107.309 1620.98 99.1322C1621.68 86.3529 1621.68 73.5451 1620.98 60.7658C1621.01 59.0438 1620.69 57.3343 1620.04 55.7409C1619.38 54.1475 1618.41 52.7036 1617.19 51.4967C1615.96 50.2898 1614.5 49.3452 1612.9 48.7202C1611.3 48.0952 1609.59 47.8028 1607.87 47.8608C1593.2 47.5895 1578.5 47.8608 1563.79 47.6282C1562.01 47.6282 1562.05 48.4808 1562.05 49.7984C1562.16 59.8486 1562.19 69.9117 1562.17 79.9878H1562.09Z" fill="#FCFCFC"/>
<path d="M1679.37 121.377C1679.37 101.458 1679.37 81.577 1679.37 61.6962C1679.08 53.8145 1681.69 46.1002 1686.73 40.0328C1689.26 37.1143 1692.36 34.7331 1695.82 33.0294C1699.29 31.3256 1703.07 30.3336 1706.92 30.1118C1722.3 28.8716 1737.75 28.8716 1753.12 30.1118C1759.57 30.4394 1765.7 32.9621 1770.52 37.2617C1775.33 41.5613 1778.53 47.3795 1779.59 53.7517C1780.3 58.042 1780.65 62.385 1780.64 66.7342C1780.64 102.427 1780.64 138.158 1780.64 173.85C1780.68 174.695 1780.45 175.532 1779.97 176.231C1779.5 176.931 1778.81 177.456 1778.01 177.726C1773.13 179.857 1768.37 182.298 1763.53 184.585C1760.63 185.98 1760.55 185.903 1760.55 182.764C1760.55 161.139 1760.55 139.514 1760.55 117.889C1760.55 115.177 1759.82 114.402 1757.03 114.402C1738.74 114.402 1720.43 114.402 1702.09 114.402C1699.65 114.402 1699.11 115.06 1699.11 117.424C1699.11 136.065 1699.11 154.706 1699.11 173.308C1699.26 174.232 1699.08 175.181 1698.59 175.979C1698.09 176.777 1697.33 177.37 1696.44 177.648C1691.29 179.896 1686.3 182.415 1681.27 184.934C1679.37 185.864 1678.87 185.631 1678.87 183.345C1678.87 162.65 1678.87 141.917 1678.87 121.339L1679.37 121.377ZM1729.99 96.3035H1758.27C1759.55 96.3035 1760.71 96.3035 1760.71 94.5983C1760.52 82.9721 1761.37 71.6947 1760.21 60.3011C1760.21 58.5952 1759.87 56.9058 1759.2 55.3372C1758.53 53.7685 1757.55 52.354 1756.31 51.1809C1755.08 50.0078 1753.61 49.1011 1752.01 48.5167C1750.41 47.9324 1748.71 47.6829 1747.01 47.7836C1735.4 47.3573 1723.79 47.396 1712.19 47.7836C1710.36 47.8184 1708.57 48.2831 1706.96 49.14C1704.66 50.3556 1702.75 52.2052 1701.46 54.471C1700.17 56.7368 1699.56 59.3243 1699.69 61.9287C1699.49 72.5473 1699.69 83.1659 1699.69 93.7845C1699.69 95.9159 1700.31 96.3423 1702.28 96.3423C1711.34 96.226 1720.66 96.3035 1729.99 96.3035Z" fill="#FCFCFC"/>
<path d="M1820.92 108.046C1820.92 84.7938 1820.92 61.5415 1820.92 37.9791C1820.81 36.8954 1821.07 35.8071 1821.65 34.8872C1822.23 33.9674 1823.1 33.2687 1824.13 32.9023C1829.11 30.3349 1834.67 29.1064 1840.26 29.337C1857.21 29.7632 1874.16 28.9107 1891.11 29.802C1895.84 29.8558 1900.5 31.0407 1904.68 33.2583C1908.87 35.4759 1912.47 38.662 1915.18 42.552C1917.8 46.5947 1919.43 51.2033 1919.94 55.9997C1920.48 59.8504 1920.74 63.7366 1920.71 67.6258C1920.71 92.8934 1920.71 118.148 1920.71 143.39C1920.82 148.75 1920.25 154.103 1919.01 159.318C1917.94 164.303 1915.48 168.885 1911.93 172.539C1908.38 176.192 1903.87 178.769 1898.93 179.974C1894.26 181.123 1889.45 181.644 1884.65 181.524C1864.41 181.524 1844.17 181.524 1823.97 181.524C1821.58 181.524 1820.92 180.942 1820.92 178.501C1820.96 155.093 1820.92 131.57 1820.92 108.046ZM1841.15 105.45V160.752C1841.15 162.03 1840.65 163.619 1842.93 163.619C1857.79 163.619 1872.65 163.619 1887.51 163.387C1890.32 163.427 1893.05 162.485 1895.24 160.724C1897.43 158.962 1898.94 156.492 1899.51 153.737C1900.06 152.009 1900.35 150.205 1900.36 148.389C1900.36 141.878 1900.36 135.329 1900.36 128.78C1900.36 106.457 1900.36 84.135 1900.36 61.774C1900.46 59.9439 1900.19 58.1116 1899.57 56.3895C1898.94 54.6674 1897.97 53.092 1896.71 51.76C1895.45 50.428 1893.93 49.3675 1892.25 48.6438C1890.57 47.92 1888.76 47.5483 1886.93 47.5513C1885.96 47.5513 1884.96 47.5513 1883.95 47.5513C1870.72 47.5513 1857.48 47.5513 1844.25 47.5513C1841.93 47.5513 1841.15 48.1326 1841.15 50.5741C1841.19 68.7497 1841.15 87.1191 1841.15 105.45Z" fill="#FCFCFC"/>
<path d="M1151.12 105.411C1151.12 118.665 1151.12 131.919 1151.12 145.172C1151.38 152.363 1149.96 159.516 1146.98 166.061C1145.26 169.472 1142.83 172.473 1139.85 174.86C1136.88 177.247 1133.42 178.965 1129.72 179.896C1125.52 181.053 1121.19 181.614 1116.84 181.562C1104.88 181.562 1092.88 181.562 1080.93 181.562C1073.71 181.667 1066.66 179.378 1060.88 175.052C1055.87 171.079 1052.39 165.493 1051.02 159.24C1049.78 153.566 1049.23 147.762 1049.39 141.956C1049.39 117.618 1049.39 93.2809 1049.39 68.9434C1049.36 63.681 1049.81 58.427 1050.75 53.248C1051.81 47.5388 1054.62 42.2998 1058.77 38.2484C1062.93 34.1969 1068.23 31.5311 1073.96 30.6157C1076.36 30.1259 1078.79 29.8278 1081.24 29.7244C1094.55 29.4919 1107.9 29.2206 1121.21 29.7244C1128.15 29.885 1134.84 32.3373 1140.25 36.7001C1144.84 40.439 1148.09 45.5847 1149.49 51.3491C1150.86 57.4631 1151.45 63.7273 1151.23 69.9897C1151.12 81.8097 1151.12 93.5909 1151.12 105.411ZM1069.86 105.411H1069.67C1069.67 113.394 1069.67 121.377 1069.67 129.4C1069.67 136.375 1069.32 143.39 1069.9 150.365C1069.88 152.108 1070.21 153.838 1070.86 155.453C1071.52 157.068 1072.49 158.535 1073.72 159.77C1074.94 161.004 1076.41 161.98 1078.02 162.641C1079.63 163.302 1081.35 163.635 1083.09 163.619C1094.7 163.891 1106.12 163.852 1117.65 163.619C1120.54 163.704 1123.37 162.763 1125.63 160.962C1127.9 159.161 1129.46 156.615 1130.03 153.776C1130.77 151.05 1131.07 148.225 1130.92 145.405V89.638C1130.92 80.5308 1130.92 71.4624 1130.92 62.5102C1130.65 52.8217 1125.58 47.8225 1115.91 47.6287C1105.46 47.4349 1095.05 47.4349 1084.6 47.6287C1075.51 47.6287 1070.25 52.6667 1070.05 61.7739C1069.4 76.1904 1069.63 90.6456 1069.63 105.256L1069.86 105.411Z" fill="#FCFCFC"/>
<path d="M1191.21 110.023C1191.21 85.8014 1191.21 61.5415 1191.21 37.2815C1191.14 36.469 1191.34 35.6572 1191.76 34.9615C1192.18 34.2657 1192.82 33.7215 1193.57 33.4061C1198.98 30.5078 1205.08 29.1664 1211.21 29.5307C1225.1 29.8795 1238.99 29.5307 1252.85 29.5307C1260.21 29.1563 1267.55 30.4822 1274.32 33.4061C1277.81 35.0453 1280.91 37.4107 1283.41 40.3445C1285.91 43.2783 1287.76 46.7129 1288.83 50.4191C1290.19 55.3254 1290.83 60.4038 1290.73 65.4944C1290.73 77.5469 1291.35 89.6768 1290.34 101.729C1289.18 115.409 1281.63 125.757 1267.51 128.857C1262.11 130.032 1256.59 130.591 1251.07 130.523C1238.76 130.523 1226.42 130.523 1214.07 130.523C1211.95 130.523 1211.33 130.911 1211.37 133.159C1211.37 146.8 1211.37 160.286 1211.37 174.044C1211.46 174.872 1211.27 175.708 1210.83 176.414C1210.39 177.119 1209.72 177.65 1208.93 177.92C1203.86 180.167 1198.94 182.648 1193.95 185.012C1191.21 186.329 1191.13 186.29 1191.13 183.306L1191.21 110.023ZM1211.37 79.7946C1211.37 89.8706 1211.37 99.9854 1211.37 110.061C1211.37 111.379 1211.37 112.232 1213.15 112.232C1227.31 112.232 1241.43 112.232 1255.71 112.232C1257.6 112.39 1259.5 112.148 1261.3 111.52C1263.09 110.892 1264.73 109.892 1266.11 108.587C1267.49 107.281 1268.58 105.699 1269.31 103.943C1270.03 102.187 1270.39 100.297 1270.34 98.3965C1271.03 90.8782 1270.57 83.3212 1270.57 75.8029C1270.83 70.3492 1270.7 64.8841 1270.18 59.4488C1269.93 56.289 1268.5 53.3398 1266.18 51.1861C1263.85 49.0325 1260.81 47.8319 1257.64 47.8226C1242.86 47.5513 1228.08 47.8226 1213.3 47.5513C1211.37 47.5513 1211.37 48.4039 1211.37 49.8766C1211.4 59.8751 1211.37 69.8348 1211.37 79.8333V79.7946Z" fill="#FCFCFC"/>
<path d="M927.736 105.372C927.736 119.827 927.736 134.282 927.736 148.737C927.558 150.726 927.818 152.73 928.498 154.607C929.178 156.484 930.261 158.188 931.671 159.6C933.08 161.012 934.782 162.097 936.657 162.778C938.531 163.459 940.531 163.719 942.517 163.541C952.926 163.541 963.373 163.541 973.782 163.541C983.378 163.541 988.408 158.271 988.718 148.582C988.718 144.978 988.718 141.335 988.718 137.692C988.624 137.025 988.76 136.346 989.105 135.768C989.45 135.19 989.983 134.747 990.614 134.515C995.954 132.086 1001.25 129.502 1006.52 126.764C1008.45 125.795 1009.11 126.299 1009.07 128.391C1009.34 137.106 1009.08 145.828 1008.3 154.512C1007.95 158.771 1006.67 162.902 1004.54 166.607C1002.41 170.312 999.494 173.5 995.993 175.943C990.916 179.345 984.959 181.191 978.851 181.252C965.231 181.484 951.765 181.484 938.028 181.252C931.033 181.275 924.228 178.972 918.681 174.702C914.405 171.285 911.261 166.651 909.665 161.41C907.984 155.743 907.239 149.839 907.46 143.932C907.46 118.238 907.46 92.5053 907.46 66.8114C907.213 60.3607 908.171 53.9205 910.285 47.822C912.042 43.2682 914.967 39.2586 918.764 36.1971C922.562 33.1356 927.097 31.1301 931.915 30.3827C934.13 29.9058 936.383 29.6206 938.648 29.5301C952.229 29.2201 965.734 28.9488 979.431 29.5301C986.281 29.6986 992.882 32.1383 998.198 36.4671C1002.65 40.0979 1005.83 45.0512 1007.29 50.6123C1008.94 58.0626 1009.59 65.6997 1009.23 73.3221C1009.28 73.9942 1009.12 74.6663 1008.75 75.234C1008.39 75.8016 1007.85 76.233 1007.21 76.4611C1001.95 78.8639 996.689 81.3441 991.543 83.9407C989.376 85.0258 988.873 84.367 988.873 82.1967C988.873 75.2985 988.873 68.4003 988.873 61.5021C989.007 59.6942 988.764 57.8781 988.16 56.1693C987.555 54.4605 986.602 52.8965 985.361 51.5769C984.12 50.2573 982.618 49.2109 980.951 48.5044C979.284 47.7978 977.488 47.4467 975.678 47.4732C964.263 47.0469 952.81 47.0469 941.395 47.4732C932.959 47.7445 928.161 53.3251 927.89 61.8509C927.89 62.781 927.89 63.6723 927.89 64.6024C927.89 78.1405 927.89 91.6656 927.89 105.178L927.736 105.372Z" fill="#FCFCFC"/>
<path d="M1960.8 107.813C1960.8 84.5606 1960.8 61.3083 1960.8 38.3659C1960.65 37.1923 1960.91 36.0039 1961.52 34.9917C1962.13 33.9795 1963.06 33.2024 1964.16 32.7853C1968.96 30.3751 1974.28 29.1902 1979.64 29.3363C1997.21 29.5688 2014.81 29.3363 2032.42 29.3363C2035.67 29.3363 2035.71 29.3362 2034.28 32.4753C2032.34 36.5832 2030.41 40.6524 2028.55 44.7991C2028.26 45.7852 2027.63 46.6359 2026.78 47.1974C2025.92 47.7589 2024.89 47.9942 2023.87 47.8606C2010.44 47.8606 1997.02 47.8606 1983.59 47.8606C1981.46 47.8606 1980.84 48.3644 1980.88 50.5734C1980.88 65.0286 1980.88 79.4451 1980.88 93.9003C1980.88 95.993 1981.46 96.4193 1983.47 96.4193C1999.69 96.4193 2015.94 96.4193 2032.15 96.4193C2035.67 96.4193 2035.67 96.4193 2034.24 99.5971C2032.27 103.783 2030.37 107.929 2028.4 112.153C2028.14 113.063 2027.57 113.848 2026.78 114.362C2025.98 114.875 2025.03 115.082 2024.1 114.944C2010.6 114.944 1997.02 114.944 1983.59 114.944C1981.42 114.944 1980.84 115.448 1980.88 117.618C1980.88 132.008 1980.88 146.36 1980.88 160.673C1980.88 162.999 1981.54 163.541 1983.78 163.541C2005.45 163.541 2027.12 163.541 2048.79 163.541C2052.66 163.541 2052.66 163.541 2050.96 166.835C2048.9 171.253 2046.74 175.671 2044.76 180.128C2044.59 180.68 2044.22 181.152 2043.74 181.464C2043.25 181.775 2042.67 181.906 2042.09 181.833C2015.7 181.833 1989.32 181.833 1962.93 181.833C1960.49 181.833 1960.68 180.477 1960.68 178.849C1960.78 155.132 1960.82 131.453 1960.8 107.813Z" fill="#FCFCFC"/>
<path d="M1419.54 67.3935C1419.54 78.1671 1419.97 90.6458 1419.23 103.047C1419.24 107.742 1418.14 112.373 1416.02 116.558C1413.89 120.742 1410.8 124.36 1407 127.113C1403.53 129.53 1399.57 131.144 1395.4 131.841C1390.95 132.776 1386.4 133.153 1381.85 132.965C1379.34 132.965 1378.91 133.701 1378.95 136.027C1378.95 148.622 1378.95 161.256 1378.95 173.889C1379.07 174.73 1378.88 175.585 1378.42 176.297C1377.95 177.009 1377.25 177.53 1376.44 177.765C1371.64 179.819 1366.92 182.144 1362.2 184.392C1358.83 185.981 1358.79 185.942 1358.79 182.338C1358.79 166.836 1358.79 151.606 1358.79 136.259C1358.79 133.546 1357.94 132.965 1355.39 132.965C1348.03 133.334 1340.68 132.008 1333.91 129.09C1330.36 127.358 1327.23 124.856 1324.76 121.767C1322.29 118.677 1320.54 115.076 1319.63 111.224C1318.21 105.406 1317.6 99.4209 1317.81 93.4361C1317.81 74.7955 1317.81 56.1936 1317.81 37.5529C1317.68 36.591 1317.9 35.6142 1318.41 34.7928C1318.93 33.9713 1319.72 33.3573 1320.64 33.0575C1325.51 30.8873 1330.27 28.4458 1335.11 26.1593C1337.93 24.8029 1338.13 24.9191 1338.13 28.0582V95.7613C1337.97 99.1151 1338.32 102.473 1339.17 105.721C1339.79 108.171 1341.18 110.355 1343.14 111.942C1345.1 113.53 1347.53 114.434 1350.05 114.518C1362.54 115.1 1375.08 115.138 1387.58 114.518C1390.34 114.375 1392.96 113.277 1395 111.411C1397.04 109.544 1398.37 107.026 1398.76 104.287C1399.39 100.979 1399.68 97.6168 1399.65 94.2499C1399.65 75.1055 1399.65 55.9481 1399.65 36.7778C1399.54 36.0788 1399.67 35.3622 1400.04 34.7531C1400.4 34.144 1400.96 33.681 1401.63 33.445C1406.81 31.1198 1411.92 28.6008 1417.1 26.1205C1418.84 25.2679 1419.77 24.9579 1419.73 27.6707C1419.46 40.2657 1419.54 53.0933 1419.54 67.3935Z" fill="#FCFCFC"/>
<path d="M1468.1 116.339C1468.1 94.4561 1468.1 72.5602 1468.1 50.6513C1468.1 48.326 1467.41 47.7447 1465.2 47.7447C1452.66 47.7447 1440.16 47.7447 1427.63 47.7447C1424.84 47.7447 1424.69 47.5122 1425.85 45.0707C1427.98 40.459 1430.14 35.886 1432.27 31.2743C1432.51 30.6431 1432.95 30.1095 1433.52 29.7583C1434.1 29.4072 1434.78 29.2588 1435.44 29.3366H1528.78C1531.48 29.3366 1531.64 29.6079 1530.48 32.1269C1528.43 36.5448 1526.26 40.924 1524.29 45.4195C1524.03 46.2086 1523.5 46.8781 1522.79 47.3053C1522.07 47.7324 1521.23 47.8884 1520.42 47.7447C1510.74 47.7447 1501.07 47.7447 1491.32 47.7447C1488.69 47.7447 1487.99 48.4423 1487.99 51.0776C1487.99 92.0405 1487.99 133.003 1487.99 174.005C1488.13 174.838 1487.96 175.692 1487.51 176.407C1487.06 177.121 1486.36 177.645 1485.55 177.88C1480.6 180.089 1475.73 182.57 1470.85 184.895C1468.06 186.174 1467.79 186.019 1467.79 182.957C1468 160.712 1468.1 138.506 1468.1 116.339Z" fill="#FCFCFC"/>
</g>
<defs>
<clipPath id="clip0_2357_3448">
<rect width="2052" height="418" fill="white"/>
</clipPath>
</defs>
</svg>
