<svg width="32" height="33" viewBox="0 0 32 33" fill="none" xmlns="http://www.w3.org/2000/svg">
<path d="M30.3357 19.6652C30.5429 18.6535 30.6714 17.5768 30.6714 16.5C30.6714 8.29785 24.1071 1.66387 16.0071 1.66387C14.9429 1.66387 13.8857 1.78672 12.8786 2.00352C11.5214 0.941211 9.83571 0.3125 8 0.3125C3.58571 0.3125 0 3.94023 0 8.40625C0 10.2635 0.621429 11.9689 1.66429 13.3348C1.45714 14.3465 1.32857 15.4232 1.32857 16.5C1.32857 24.7021 7.89286 31.3361 15.9929 31.3361C17.0571 31.3361 18.1143 31.2133 19.1214 30.9965C20.4786 32.0516 22.1643 32.6803 23.9929 32.6803C28.4071 32.6803 31.9929 29.0525 31.9929 24.5865C32 22.7365 31.3786 21.0311 30.3357 19.6652ZM16.4357 26.2775C11.75 26.2775 7.82857 24.1674 7.82857 21.5803C7.82857 20.424 8.47143 19.3689 9.93572 19.3689C12.1643 19.3689 12.3714 22.6137 16.2286 22.6137C18.0643 22.6137 19.25 21.7898 19.25 20.7131C19.25 19.3617 18.1071 19.1521 16.25 18.6896C11.7857 17.5768 7.83571 17.0998 7.83571 12.3881C7.83571 8.10996 12.0214 6.52734 15.6286 6.52734C19.5643 6.52734 23.5429 8.10996 23.5429 10.5309C23.5429 11.7521 22.7286 12.8289 21.3786 12.8289C19.3571 12.8289 19.2929 10.408 16.0214 10.408C14.1857 10.408 13.0214 10.9139 13.0214 12.034C13.0214 13.4648 14.5071 13.6094 17.9571 14.4187C20.9143 15.0908 24.4357 16.3555 24.4357 20.0266C24.4357 24.2975 20.3571 26.2775 16.4357 26.2775Z" fill="#A7A7A7"/>
</svg>
