<?xml version="1.0" encoding="UTF-8"?>
<svg version="1.1" xmlns="http://www.w3.org/2000/svg" viewBox="0 0 1024 1024" width="1024" height="1024">
<path d="M0 0 C0.9170018 -0.00563965 1.8340036 -0.0112793 2.77879333 -0.01708984 C4.29214012 -0.01101715 4.29214012 -0.01101715 5.83605957 -0.00482178 C7.42638756 -0.01007874 7.42638756 -0.01007874 9.04884338 -0.01544189 C12.56717399 -0.0242727 16.0853049 -0.01840523 19.6036377 -0.01165771 C22.03979532 -0.01300398 24.47595268 -0.01494418 26.91210938 -0.01745605 C32.02334139 -0.02040915 37.13450362 -0.01610368 42.24572754 -0.0067749 C48.81012273 0.00461967 55.3743544 -0.0019388 61.93874359 -0.01391983 C66.97089885 -0.0211334 72.0030151 -0.01885281 77.03517151 -0.01366425 C79.45618204 -0.01232636 81.87719607 -0.0139803 84.29820251 -0.01862335 C87.67680295 -0.02368029 91.05513544 -0.01598995 94.43371582 -0.00482178 C95.44261368 -0.00887024 96.45151154 -0.0129187 97.49098206 -0.01708984 C98.40798386 -0.0114502 99.32498566 -0.00581055 100.26977539 0 C101.46881878 0.00113108 101.46881878 0.00113108 102.69208527 0.002285 C104.6348877 0.25396729 104.6348877 0.25396729 106.6348877 2.25396729 C106.89660072 5.15501595 106.89660072 5.15501595 106.9133606 8.94833374 C106.919153 9.64424649 106.9249454 10.34015924 106.93091333 11.05716026 C106.94798406 13.40031539 106.95079584 15.74327442 106.95373535 18.08648682 C106.96302867 19.76164232 106.97319644 21.43679318 106.98417664 23.11193848 C107.01155805 27.66951603 107.02665006 32.22706254 107.03960466 36.78470087 C107.05519971 41.5440138 107.0820014 46.30326298 107.1076355 51.06253052 C107.1544877 60.07934529 107.19120056 69.09617196 107.22430837 78.11304653 C107.26248435 88.37654032 107.31190629 98.63997021 107.36229253 108.9034102 C107.46570814 130.02021541 107.55493713 151.13706106 107.6348877 172.25396729 C111.11590744 173.04222382 114.33025009 173.38104467 117.89657593 173.38768005 C118.93668823 173.39194504 119.97680054 173.39621002 121.0484314 173.40060425 C122.17894928 173.40015106 123.30946716 173.39969788 124.47424316 173.39923096 C125.673172 173.40258957 126.87210083 173.40594818 128.10736084 173.40940857 C131.38843176 173.41727175 134.66946467 173.42058561 137.95054388 173.42122436 C140.0027897 173.42193628 142.05502893 173.4240733 144.1072731 173.42672157 C151.27354604 173.4359665 158.4398004 173.44005752 165.6060791 173.43927002 C172.27540309 173.43866941 178.94464614 173.44922013 185.61394966 173.46501368 C191.34914811 173.47810894 197.08432018 173.48345309 202.81953347 173.48281461 C206.24082101 173.48256021 209.66203659 173.48537919 213.08330917 173.49599266 C216.9011888 173.50579168 220.71886017 173.5029147 224.53674316 173.49688721 C226.2264473 173.50531647 226.2264473 173.50531647 227.95028687 173.51391602 C233.57559011 173.49135305 238.3257568 173.15949952 243.6348877 171.25396729 C244.46647487 166.90255208 244.76535193 162.78531345 244.77964783 158.35778809 C244.7849381 157.35378641 244.7849381 157.35378641 244.79033524 156.32950187 C244.80095864 154.10021493 244.80469193 151.87097082 244.80847168 149.6416626 C244.8147815 148.0381299 244.82154777 146.43459895 244.82873535 144.83106995 C244.84337002 141.38531102 244.85510857 137.9395587 244.86468315 134.49378204 C244.88015854 129.04871967 244.90410439 123.60371498 244.92958069 118.15869141 C245.00073308 102.67795449 245.06069037 87.19718566 245.11169434 71.71636963 C245.13995575 63.1610378 245.17530618 54.60576448 245.21834809 46.05049396 C245.2451712 40.63356263 245.26304423 35.21669742 245.27438533 29.79971266 C245.2834839 26.4377183 245.30083126 23.07580483 245.32056427 19.71385765 C245.32806306 18.15052493 245.33212222 16.58717152 245.33255959 15.02382088 C245.33363573 12.89645591 245.34682468 10.76950634 245.36314392 8.64221191 C245.36737586 7.44983036 245.3716078 6.25744881 245.37596798 5.02893448 C245.6348877 2.25396729 245.6348877 2.25396729 247.6348877 0.25396729 C249.56765938 0.00787163 249.56765938 0.00787163 251.97549438 0.01345825 C252.88697235 0.01070892 253.79845032 0.00795959 254.73754883 0.00512695 C255.74023804 0.0123175 256.74292725 0.01950806 257.77600098 0.0269165 C258.82967865 0.02662445 259.88335632 0.0263324 260.96896362 0.02603149 C264.46445853 0.0274289 267.95974235 0.04300952 271.4552002 0.05865479 C273.87372725 0.06238345 276.29225581 0.06523111 278.71078491 0.06723022 C285.08620348 0.0748782 291.46153139 0.0945367 297.83691406 0.11663818 C304.33856988 0.13707155 310.8402403 0.14622657 317.34191895 0.15631104 C330.10628062 0.17778148 342.87057934 0.21154872 355.6348877 0.25396729 C357.11279886 3.20978961 356.77292747 6.2038408 356.76352215 9.44420624 C356.76527519 10.19724102 356.76702822 10.95027581 356.76883438 11.72612983 C356.77352483 14.27575081 356.77102111 16.82531551 356.76860046 19.37493896 C356.7704669 21.21077633 356.77276693 23.0466133 356.77546579 24.88244963 C356.78161079 29.94777456 356.78144704 35.01308305 356.78027141 40.07841086 C356.78006809 45.53313692 356.78557958 50.9878576 356.79032898 56.44258118 C356.79865061 67.13651682 356.80138449 77.83044696 356.80194136 88.52438557 C356.80241575 97.21187044 356.80446666 105.89935348 356.80764198 114.58683777 C356.81645228 139.19009113 356.82106677 163.79334038 356.82031151 188.3965953 C356.82028159 189.39189191 356.82028159 189.39189191 356.82025107 190.40729553 C356.82021063 191.74911716 356.82016883 193.09093878 356.82012568 194.43276041 C356.81951267 215.31799388 356.82702325 236.20321112 356.84069824 257.08843994 C356.85604372 280.53478304 356.86465273 303.98111725 356.86373502 327.42746592 C356.86340229 339.84880211 356.8661825 352.27012001 356.87691307 364.69145203 C356.88598834 375.26482549 356.88821791 385.83817236 356.88140365 396.41154802 C356.87812347 401.8111888 356.87813533 407.21077848 356.8867569 412.61041451 C356.8945571 417.54616555 356.89325766 422.48182442 356.88447277 427.41757303 C356.88292336 429.21026955 356.88480734 431.00297272 356.89033284 432.79566139 C356.89731029 435.21846464 356.89216526 437.64093701 356.88377666 440.06372833 C356.88874484 440.77183633 356.89371302 441.47994433 356.89883175 442.20951015 C356.8631839 447.02567108 356.8631839 447.02567108 354.6348877 449.25396729 C351.65671476 449.44181401 348.77315626 449.50945806 345.79504395 449.48443604 C344.91714706 449.48397781 344.03925018 449.48351959 343.13475037 449.48304749 C341.27613984 449.48002354 339.41753188 449.47213301 337.55895996 449.45977783 C334.71243311 449.44156356 331.86623227 449.43926785 329.01965332 449.43951416 C327.21561405 449.43459732 325.41157698 449.42876828 323.60754395 449.42193604 C322.75435074 449.42082321 321.90115753 449.41971039 321.02210999 449.41856384 C317.65039678 449.39147692 314.85512666 449.32738027 311.6348877 448.25396729 C308.63819414 448.11134636 305.66058032 448.02042501 302.66223145 447.97271729 C301.34395103 447.94510315 301.34395103 447.94510315 299.9990387 447.91693115 C296.23642157 447.83823393 292.47362626 447.77042194 288.71081543 447.70172119 C285.96536261 447.65004989 283.22006588 447.59278672 280.47473145 447.53521729 C279.19190529 447.51485413 279.19190529 447.51485413 277.88316345 447.49407959 C271.86053854 447.36679271 271.86053854 447.36679271 269.6348877 446.25396729 C267.99238436 446.11347097 266.34495278 446.02826647 264.6973877 445.97271729 C263.72027832 445.93533447 262.74316895 445.89795166 261.7364502 445.85943604 C260.20117676 445.807229 260.20117676 445.807229 258.6348877 445.75396729 C256.61390742 445.68524377 254.5930578 445.61252524 252.5723877 445.53521729 C251.67391113 445.50492432 250.77543457 445.47463135 249.84973145 445.44342041 C247.6348877 445.25396729 247.6348877 445.25396729 245.6348877 444.25396729 C243.8919848 438.84179513 243.55814829 434.49802147 244.07403564 428.84326172 C244.66863364 421.38780099 244.78954083 413.98916623 244.79602051 406.51275635 C244.80066499 405.09836198 244.80569174 403.68396882 244.81106567 402.26957703 C244.82402095 398.47440151 244.83059913 394.67924352 244.83507633 390.88404942 C244.83803008 388.50559068 244.84213856 386.12713651 244.84658051 383.74868011 C244.86020076 376.28428272 244.86989827 368.81989605 244.8737824 361.35548711 C244.87827269 352.77814163 244.89588848 344.20095474 244.92478299 335.62365746 C244.94644094 328.96085041 244.9564886 322.2980879 244.95782351 315.63524604 C244.95886708 311.66902247 244.96468075 307.70294911 244.98264313 303.736763 C244.99919917 300.01014459 245.00124317 296.28378831 244.99250412 292.55714607 C244.99137543 290.55292466 245.00502756 288.54871162 245.01925659 286.54454041 C244.98588477 279.27253046 244.23485798 273.06955425 241.6348877 266.25396729 C224.45877601 266.20729372 207.28268405 266.17200128 190.10652351 266.15034294 C182.13174447 266.14002033 174.15700477 266.12594127 166.18225098 266.10308838 C159.23330531 266.08318456 152.28438814 266.07025801 145.33541477 266.0657903 C141.65431052 266.0631778 137.9732878 266.05701701 134.29220963 266.04250717 C130.18781126 266.02645921 126.08355558 266.02598566 121.97912598 266.0269165 C120.75201904 266.01972595 119.52491211 266.0125354 118.26062012 266.00512695 C117.14720245 266.00787628 116.03378479 266.01062561 114.8866272 266.01345825 C113.91505739 266.01161467 112.94348759 266.00977108 111.94247627 266.00787163 C109.43963532 266.03046327 109.43963532 266.03046327 107.6348877 268.25396729 C107.32997679 271.35765878 107.32997679 271.35765878 107.3833313 275.08000183 C107.38036116 275.79013209 107.37739102 276.50026236 107.37433088 277.23191172 C107.36666167 279.62337763 107.37319669 282.01460003 107.3795166 284.40606689 C107.3767681 286.11575996 107.37308906 287.82545175 107.36854553 289.53514099 C107.36041985 293.22271892 107.35826848 296.91023617 107.36049271 300.59782219 C107.36331858 306.42511352 107.34900137 312.25228289 107.33151245 318.07954407 C107.28441484 334.65190803 107.26053865 351.22426402 107.25402832 367.79669189 C107.25028272 376.94496287 107.23229336 386.09309627 107.19893396 395.24130827 C107.17866525 401.03774087 107.17637631 406.83381996 107.18721414 412.6302737 C107.18981433 416.23272942 107.17585121 419.83497772 107.1571331 423.43737984 C107.15179359 425.11156078 107.15333779 426.78577951 107.1621685 428.45994568 C107.17323142 430.74078013 107.15992833 433.0202018 107.14041138 435.3009491 C107.13932184 436.57872191 107.13823231 437.85649473 107.13710976 439.17298794 C106.6348877 442.25396729 106.6348877 442.25396729 104.82839012 444.15874577 C101.64768564 445.74687986 98.49587561 445.78547336 95.0098877 445.87896729 C90.17468164 445.8843044 90.17468164 445.8843044 85.6348877 447.25396729 C82.81610417 447.39894184 80.01812556 447.48820964 77.1973877 447.53521729 C76.36151123 447.55362671 75.52563477 447.57203613 74.66442871 447.59100342 C71.08016943 447.66979489 67.49571837 447.7374544 63.91125488 447.80621338 C61.29820366 447.85790532 58.68531543 447.91516991 56.0723877 447.97271729 C54.85047729 447.99308044 54.85047729 447.99308044 53.60388184 448.01385498 C49.48652282 448.00662015 49.48652282 448.00662015 45.6348877 449.25396729 C44.24769647 449.36631135 42.85553275 449.42045509 41.46398926 449.44342041 C40.60259338 449.46013794 39.74119751 449.47685547 38.85369873 449.49407959 C37.92039734 449.50765503 36.98709595 449.52123047 36.0255127 449.53521729 C35.06594666 449.55362671 34.10638062 449.57203613 33.11773682 449.59100342 C30.04018393 449.6498615 26.96257404 449.70259249 23.8848877 449.75396729 C19.84831721 449.82181413 15.81191515 449.89558589 11.7755127 449.97271729 C10.38770599 449.99308044 10.38770599 449.99308044 8.97186279 450.01385498 C5.24615806 450.08511843 1.80153231 450.22344901 -1.87390137 450.89654541 C-2.69600098 451.01449463 -3.51810059 451.13244385 -4.3651123 451.25396729 C-6.80324812 448.81583147 -6.6051453 447.51499179 -6.63098347 444.18799871 C-6.62630114 443.47668202 -6.62161881 442.76536533 -6.61679459 442.03249359 C-6.61970147 441.27608206 -6.62260835 440.51967053 -6.62560332 439.74033743 C-6.63296284 437.17916876 -6.62593249 434.61823522 -6.61907959 432.05706787 C-6.62138167 430.21298013 -6.62455649 428.3688933 -6.62853408 426.52480841 C-6.6369254 421.43666013 -6.63273724 416.34858636 -6.62656164 411.26043773 C-6.62205579 405.7811689 -6.62901159 400.30191333 -6.63452148 394.82264709 C-6.64343718 384.08057644 -6.64148382 373.33853366 -6.6356962 362.59646189 C-6.63118825 353.86988319 -6.63056304 345.14331232 -6.63274384 336.41673279 C-6.6330503 335.17699474 -6.63335677 333.93725669 -6.63367252 332.65995082 C-6.63431194 330.14182635 -6.63496037 327.62370188 -6.6356177 325.10557741 C-6.64116445 302.14092058 -6.63540215 279.17627612 -6.62493251 256.21162232 C-6.61544078 235.23240232 -6.61629001 214.2532066 -6.62585449 193.27398682 C-6.63655585 169.72216685 -6.64077799 146.17035724 -6.63462996 122.61853456 C-6.63399283 120.10942364 -6.63336409 117.60031271 -6.63274384 115.09120178 C-6.63243528 113.85651589 -6.63212673 112.62183 -6.63180883 111.34972939 C-6.6300785 102.62877442 -6.63300427 93.90782803 -6.63770294 85.18687439 C-6.64329925 74.56592092 -6.64182178 63.94499703 -6.63114145 53.32404697 C-6.62586783 47.90010504 -6.6238566 42.47621251 -6.63043976 37.05227089 C-6.63636655 32.09431154 -6.63317867 27.13644773 -6.62248465 22.17849714 C-6.62023664 20.37772667 -6.62141793 18.57694825 -6.62623623 16.77618283 C-6.6322523 14.34248481 -6.62614719 11.90912105 -6.61679459 9.47544098 C-6.62147692 8.76412429 -6.62615925 8.0528076 -6.63098347 7.31993586 C-6.58792467 1.77556749 -5.61241117 0.00529428 0 0 Z " fill="#1481CE" transform="translate(337.3651123046875,288.74603271484375)"/>
<path d="M0 0 C1.18081681 0.00276538 1.18081681 0.00276538 2.38548851 0.00558662 C3.28855232 0.0028373 4.19161613 0.00008797 5.12204552 -0.00274467 C6.11538399 0.00444588 7.10872246 0.01163643 8.13216209 0.01904488 C9.1760862 0.01875282 10.2200103 0.01846077 11.29556847 0.01815987 C14.75859854 0.01955724 18.22141553 0.03513769 21.68440819 0.05078316 C24.08051498 0.05451184 26.4766233 0.05735949 28.87273216 0.0593586 C35.18896738 0.06700648 41.50511107 0.08666489 47.82131004 0.10876656 C54.26264266 0.12920014 60.70399002 0.13835498 67.14534569 0.14843941 C79.79121814 0.16990968 92.43702705 0.20367679 105.08284569 0.24609566 C102.17684771 1.90094476 100.11652782 2.49320552 96.78093529 2.47314644 C95.50227844 2.47293495 95.50227844 2.47293495 94.19779015 2.47271919 C93.27088875 2.46238655 92.34398735 2.45205391 91.38899803 2.44140816 C90.40651588 2.43848763 89.42403374 2.43556709 88.4117794 2.43255806 C86.27992175 2.42495018 84.14807672 2.41272131 82.01626778 2.39642525 C78.64647711 2.37092687 75.27684358 2.35787498 71.90697289 2.34814644 C64.75719331 2.32527867 57.60754319 2.28677672 50.45784569 2.24609566 C42.16764959 2.19897573 33.87752695 2.15817832 25.58722878 2.13421822 C22.26001505 2.12120801 18.93302547 2.09619492 15.60588646 2.07080269 C13.57656109 2.06354103 11.54723362 2.05683715 9.51790428 2.05078316 C8.58695442 2.04045052 7.65600456 2.03011787 6.6968441 2.01947212 C5.42664673 2.01926064 5.42664673 2.01926064 4.1307888 2.01904488 C3.024134 2.01238304 3.024134 2.01238304 1.89512253 2.00558662 C-0.16901018 2.09266101 -0.16901018 2.09266101 -1.91715431 4.24609566 C-2.2041096 6.79081726 -2.2041096 6.79081726 -2.12833595 9.82299995 C-2.12499748 11.02835396 -2.12165901 12.23370796 -2.11821938 13.47558784 C-2.11160852 14.13578926 -2.10499767 14.79599068 -2.09818649 15.4761982 C-2.07660436 17.64115505 -2.06723503 19.80589773 -2.0604496 21.97094917 C-2.04889317 25.217933 -2.03186774 28.46482674 -2.01090431 31.71176338 C-1.95301902 40.92102996 -1.93711073 50.13042714 -1.92106056 59.33984566 C-1.91901745 60.36722029 -1.91697433 61.39459492 -1.91486931 62.45310211 C-1.85712296 94.63644939 -2.13912408 126.81900032 -2.38027 159.00119591 C-2.41735989 163.95175286 -2.45382069 168.90231432 -2.49018288 173.85287666 C-2.62842562 192.65064835 -2.77047447 211.4483878 -2.91715431 230.24609566 C-3.24715431 230.24609566 -3.57715431 230.24609566 -3.91715431 230.24609566 C-3.96274365 201.23429505 -3.99815512 172.22249793 -4.01928497 143.21066869 C-4.02178649 139.78839559 -4.02437513 136.36612256 -4.02701759 132.94384956 C-4.02754221 132.26251402 -4.02806684 131.58117847 -4.02860735 130.87919639 C-4.03731863 119.83570931 -4.05309256 108.79224298 -4.0714599 97.74876823 C-4.09013888 86.42377461 -4.101117 75.09879641 -4.1053313 63.77378643 C-4.10794532 57.40991229 -4.1141158 51.04608526 -4.12861443 44.68222618 C-4.14213667 38.69874652 -4.14638787 32.71533362 -4.14336967 26.73184013 C-4.14392225 24.52992325 -4.14793144 22.32800426 -4.15556526 20.12610054 C-4.16544274 17.13143906 -4.16314969 14.13703319 -4.15766335 11.14236641 C-4.16348903 10.26105588 -4.16931471 9.37974535 -4.17531693 8.47172844 C-4.13570107 0.53087958 -4.13570107 0.53087958 0 0 Z " fill="#2293F7" transform="translate(334.9171543121338,288.75390434265137)"/>
<path d="M0 0 C1.19187833 0.00276538 1.19187833 0.00276538 2.40783501 0.00558662 C3.77505196 0.00146263 3.77505196 0.00146263 5.16988945 -0.00274467 C6.17257866 0.00444588 7.17526787 0.01163643 8.2083416 0.01904488 C9.26201927 0.01875282 10.31569695 0.01846077 11.40130424 0.01815987 C14.89679916 0.01955728 18.39208298 0.03513789 21.88754082 0.05078316 C24.30606787 0.05451182 26.72459643 0.05735948 29.14312553 0.0593586 C35.51854411 0.06700657 41.89387201 0.08666507 48.26925468 0.10876656 C54.7709105 0.12919993 61.27258092 0.13835494 67.77425957 0.14843941 C80.53862124 0.16990985 93.30291996 0.2036771 106.06722832 0.24609566 C106.56222832 3.21609566 106.56222832 3.21609566 107.06722832 6.24609566 C106.40722832 6.57609566 105.74722832 6.90609566 105.06722832 7.24609566 C104.57222832 4.77109566 104.57222832 4.77109566 104.06722832 2.24609566 C90.54186831 2.19983449 77.01652701 2.16425818 63.49110413 2.14247131 C57.21127473 2.13201678 50.9314993 2.1178272 44.65170097 2.09521675 C38.59576573 2.07354781 32.53988252 2.06153962 26.48391151 2.05634117 C24.16895414 2.05263469 21.85399973 2.04539729 19.53906441 2.03463554 C16.30636413 2.0201997 13.07388121 2.01811439 9.8411541 2.01904488 C8.87586784 2.01185432 7.91058159 2.00466377 6.91604424 1.99725533 C5.59931221 2.00137932 5.59931221 2.00137932 4.25597954 2.00558662 C3.10834727 2.00282125 3.10834727 2.00282125 1.93753052 2 C-0.17783048 2.08527617 -0.17783048 2.08527617 -1.93277168 4.24609566 C-2.20847785 6.82951592 -2.20847785 6.82951592 -2.12039375 9.87808418 C-2.11279785 11.05952192 -2.10520195 12.24095966 -2.09737587 13.45819855 C-2.07979477 14.7489712 -2.06221367 16.03974384 -2.04409981 17.36963081 C-2.02789121 19.42351085 -2.0154504 21.4773948 -2.00299501 23.53130066 C-1.99402319 24.95784082 -1.98386548 26.38437396 -1.97258329 27.81089771 C-1.91587937 35.16146052 -1.96383612 42.51037411 -2.02456856 49.86084175 C-2.0396326 51.86772557 -2.05469635 53.87460939 -2.06972742 55.88149345 C-2.09065369 58.63582925 -2.11270592 61.39015565 -2.13470078 64.14448309 C-2.16357157 67.79184237 -2.19109375 71.43921187 -2.21878242 75.08658028 C-2.27099175 81.93857814 -2.32434663 88.79056654 -2.37815428 95.64255202 C-2.43953613 103.46655012 -2.49957818 111.29055834 -2.5595293 119.11456752 C-2.68249353 135.15842162 -2.80707003 151.20226276 -2.93277168 167.24609566 C-3.26277168 167.24609566 -3.59277168 167.24609566 -3.93277168 167.24609566 C-3.97943866 145.76731923 -4.01473446 124.28855113 -4.03639603 102.80973434 C-4.04672003 92.83733236 -4.06080177 82.86496183 -4.08365059 72.89258003 C-4.10355013 64.2032899 -4.11647994 55.51402254 -4.12094867 46.82471025 C-4.12356189 42.22140585 -4.12972729 37.61816661 -4.1442318 33.01488304 C-4.15776151 28.68608071 -4.16200372 24.35737066 -4.15898705 20.02854919 C-4.15953928 18.43617756 -4.16354411 16.84380299 -4.17118263 15.25144958 C-4.18107194 13.08439894 -4.17876288 10.91770087 -4.17328072 8.75064278 C-4.1751243 7.53571962 -4.17696789 6.32079647 -4.17886734 5.06905746 C-3.89638699 1.82872709 -3.39769704 0.43262145 0 0 Z " fill="#2394FA" transform="translate(586.9327716827393,288.75390434265137)"/>
<path d="M0 0 C1.32 0.33 2.64 0.66 4 1 C3.34 1.66 2.68 2.32 2 3 C1.68356318 6.07877337 1.68356318 6.07877337 1.7215271 9.77029419 C1.7157347 10.47437405 1.7099423 11.1784539 1.70397437 11.90386951 C1.68690283 14.27466317 1.68409179 16.64526302 1.68115234 19.01611328 C1.67185908 20.71097291 1.66169132 22.40582795 1.65071106 24.10067749 C1.62332902 28.71197245 1.60823744 33.32323673 1.59528303 37.93459177 C1.57968826 42.74995871 1.55288648 47.56526264 1.5272522 52.38058472 C1.48039951 61.50364766 1.44368688 70.62672238 1.41057932 79.74984443 C1.37240369 90.13425446 1.32298166 100.51860131 1.27259517 110.90295815 C1.16917883 132.26859217 1.07995007 153.63426614 1 175 C0.67 175 0.34 175 0 175 C0 117.25 0 59.5 0 0 Z " fill="#9DBFBF" transform="translate(443,554)"/>
<path d="M0 0 C0.99 0.495 0.99 0.495 2 1 C2.13248771 15.0943346 2.26291092 29.18868712 2.39115143 43.28306103 C2.45079468 49.83202655 2.51102816 56.38098539 2.57275391 62.92993164 C2.72263059 78.87025688 2.85767369 94.81061462 2.97497559 110.75121307 C2.99885068 113.8507897 3.02573124 116.95032375 3.05371094 120.04986572 C3.09307062 124.47131976 3.12263285 128.89271355 3.14305115 133.31429482 C3.15169351 134.86055147 3.16373943 136.40679374 3.17958069 137.95299339 C3.25197493 145.22902766 3.27394493 152.01389847 1 159 C0.67 159 0.34 159 0 159 C0 106.53 0 54.06 0 0 Z " fill="#026BB4" transform="translate(582,563)"/>
<path d="M0 0 C1.32 0.33 2.64 0.66 4 1 C3.34 1.66 2.68 2.32 2 3 C1.66715709 5.91374379 1.66715709 5.91374379 1.68115234 9.37744141 C1.67110672 10.03122269 1.6610611 10.68500397 1.65071106 11.3585968 C1.61978211 13.52290962 1.60281746 15.68709823 1.5859375 17.8515625 C1.5672336 19.35087154 1.54766078 20.85016998 1.5272522 22.34945679 C1.47584247 26.29823562 1.43626432 30.24704863 1.39910889 34.19598389 C1.35912444 38.22449251 1.30800683 42.25285794 1.2578125 46.28125 C1.16094864 54.18740233 1.0765776 62.09362529 1 70 C0.67 70 0.34 70 0 70 C0 46.9 0 23.8 0 0 Z " fill="#B2BFBF" transform="translate(443,554)"/>
<path d="M0 0 C0.66 0 1.32 0 2 0 C2.19354631 5.12247464 2.37205278 10.24518042 2.53710938 15.36865234 C2.5952294 17.10870135 2.65733761 18.84862219 2.72363281 20.58837891 C2.81864139 23.1003482 2.89892759 25.61244074 2.9765625 28.125 C3.00875885 28.89303955 3.0409552 29.6610791 3.0741272 30.45239258 C3.21605474 35.66013424 2.4552543 39.99352787 1 45 C0.67 45 0.34 45 0 45 C0 30.15 0 15.3 0 0 Z " fill="#0052A1" transform="translate(582,677)"/>
<path d="M0 0 C1.32 0.33 2.64 0.66 4 1 C3.34 1.66 2.68 2.32 2 3 C1.6936141 5.73434962 1.4886664 8.38279821 1.375 11.125 C1.33632813 11.87910156 1.29765625 12.63320313 1.2578125 13.41015625 C1.16348969 15.27303184 1.08065338 17.13648255 1 19 C0.67 19 0.34 19 0 19 C0 12.73 0 6.46 0 0 Z " fill="#C6C9DE" transform="translate(443,554)"/>
<path d="M0 0 C2.64 0 5.28 0 8 0 C6.8125 1.5625 6.8125 1.5625 5 3 C2.3125 2.6875 2.3125 2.6875 0 2 C0 1.34 0 0.68 0 0 Z " fill="#62A3C3" transform="translate(332,737)"/>
<path d="M0 0 C3 4 3 4 2.85546875 6.140625 C2.23697917 8.09375 1.61848958 10.046875 1 12 C0.67 12 0.34 12 0 12 C0 8.04 0 4.08 0 0 Z " fill="#064B9C" transform="translate(582,710)"/>
</svg>
