<?xml version="1.0" encoding="UTF-8"?>
<svg version="1.1" xmlns="http://www.w3.org/2000/svg" width="359" height="441">
<path d="M0 0 C36.63 0 73.26 0 111 0 C111.33 55.77 111.66 111.54 112 169 C115.73433139 169.74686628 118.54714182 170.12680161 122.26168823 170.13371277 C123.30180054 170.13797775 124.34191284 170.14224274 125.4135437 170.14663696 C127.10932053 170.14595718 127.10932053 170.14595718 128.83935547 170.14526367 C130.0382843 170.14862228 131.23721313 170.1519809 132.47247314 170.15544128 C135.75354407 170.16330447 139.03457697 170.16661832 142.31565619 170.16725707 C144.367902 170.167969 146.42014123 170.17010602 148.47238541 170.17275429 C155.63865834 170.18199921 162.80491271 170.18609023 169.97119141 170.18530273 C176.64051539 170.18470212 183.30975845 170.19525284 189.97906196 170.2110464 C195.71426042 170.22414165 201.44943249 170.2294858 207.18464577 170.22884732 C210.60593331 170.22859293 214.02714889 170.2314119 217.44842148 170.24202538 C221.26630111 170.2518244 225.08397247 170.24894742 228.90185547 170.24291992 C230.5915596 170.25134918 230.5915596 170.25134918 232.31539917 170.25994873 C237.94070242 170.23738576 242.6908691 169.90553223 248 168 C248.8276808 163.65900613 249.13425233 159.54492762 249.15821838 155.12832642 C249.16315636 154.46166438 249.16809434 153.79500235 249.17318195 153.10813844 C249.18846477 150.88801262 249.19689237 148.66791551 249.20532227 146.44775391 C249.21490805 144.85082754 249.22491854 143.25390368 249.23532104 141.65698242 C249.26230029 137.33104544 249.28334754 133.00509763 249.30332303 128.6791234 C249.32522575 124.15474517 249.35259343 119.63040006 249.37937927 115.10604858 C249.42924828 106.54268565 249.47420855 97.97930428 249.51740164 89.41590536 C249.57606727 77.84125271 249.64232297 66.26664366 249.70815182 54.69202995 C249.81163588 36.4613827 249.90498527 18.23069791 250 0 C285.97 0 321.94 0 359 0 C359 145.53 359 291.06 359 441 C323.03 441 287.06 441 250 441 C247.7633623 430.93513036 247.7633623 430.93513036 248.3649292 425.35882568 C249.03580915 417.97470031 249.15470946 410.67021024 249.16113281 403.25878906 C249.16577729 401.84439469 249.17080405 400.43000153 249.17617798 399.01560974 C249.18913325 395.22043423 249.19571144 391.42527623 249.20018864 387.63008213 C249.20314239 385.25162339 249.20725087 382.87316922 249.21169281 380.49471283 C249.22531307 373.03031544 249.23501057 365.56592876 249.2388947 358.10151982 C249.243385 349.52417435 249.26100079 340.94698745 249.2898953 332.36969018 C249.31155324 325.70688312 249.3216009 319.04412062 249.32293582 312.38127875 C249.32397938 308.41505519 249.32979305 304.44898183 249.34775543 300.48279572 C249.36431148 296.7561773 249.36635548 293.02982102 249.35761642 289.30317879 C249.35648773 287.29895738 249.37013986 285.29474434 249.3843689 283.29057312 C249.35099707 276.01856318 248.59997028 269.81558697 246 263 C228.82388832 262.95332643 211.64779636 262.91803399 194.47163582 262.89637566 C186.49685677 262.88605305 178.52211707 262.87197398 170.54736328 262.84912109 C163.59841762 262.82921727 156.64950045 262.81629073 149.70052707 262.81182301 C146.01942283 262.80921051 142.3384001 262.80304972 138.65732193 262.78853989 C134.55292357 262.77249193 130.44866789 262.77201837 126.34423828 262.77294922 C125.11713135 262.76575867 123.89002441 262.75856812 122.62573242 262.75115967 C121.51231476 262.753909 120.39889709 262.75665833 119.2517395 262.75949097 C118.2801697 262.75764738 117.30859989 262.75580379 116.30758858 262.75390434 C113.80474763 262.77649599 113.80474763 262.77649599 112 265 C111.68929689 268.10649906 111.68929689 268.10649906 111.73498535 271.83276367 C111.73060408 272.5435995 111.72622281 273.25443533 111.72170877 273.98681164 C111.70933789 276.38059377 111.71120029 278.77415825 111.71289062 281.16796875 C111.70686971 282.87928596 111.69994631 284.5906002 111.69218445 286.3019104 C111.67726957 289.99275586 111.66853982 293.68354697 111.66447449 297.37442017 C111.65777777 303.20564216 111.63604383 309.03674748 111.61193848 314.86791992 C111.56290817 327.24525267 111.53062069 339.62261008 111.5 352 C111.46694714 365.3605151 111.43109972 378.72098474 111.37586927 392.08142948 C111.35246111 397.88305988 111.33876486 403.68460933 111.33237457 409.48628235 C111.32645413 413.08972819 111.31237377 416.69310803 111.29603004 420.29652023 C111.29013264 421.97273277 111.28768623 423.64896138 111.28886986 425.32518387 C111.29002166 427.60600975 111.27907231 429.88646115 111.26501465 432.16723633 C111.26208153 433.44593094 111.25914841 434.72462555 111.2561264 436.04206848 C111 439 111 439 109 441 C73.03 441 37.06 441 0 441 C0 295.47 0 149.94 0 0 Z " fill="#1481CF" transform="translate(0,0)"/>
<path d="M0 0 C1.32 0.33 2.64 0.66 4 1 C3.34 1.66 2.68 2.32 2 3 C1.68356318 6.07877337 1.68356318 6.07877337 1.7215271 9.77029419 C1.7157347 10.47437405 1.7099423 11.1784539 1.70397437 11.90386951 C1.68690283 14.27466317 1.68409179 16.64526302 1.68115234 19.01611328 C1.67185908 20.71097291 1.66169132 22.40582795 1.65071106 24.10067749 C1.62332902 28.71197245 1.60823744 33.32323673 1.59528303 37.93459177 C1.57968826 42.74995871 1.55288648 47.56526264 1.5272522 52.38058472 C1.48039951 61.50364766 1.44368688 70.62672238 1.41057932 79.74984443 C1.37240369 90.13425446 1.32298166 100.51860131 1.27259517 110.90295815 C1.16917883 132.26859217 1.07995007 153.63426614 1 175 C0.67 175 0.34 175 0 175 C0 117.25 0 59.5 0 0 Z " fill="#9DBFBF" transform="translate(110,262)"/>
<path d="M0 0 C0.99 0.495 0.99 0.495 2 1 C2.13248771 15.0943346 2.26291092 29.18868712 2.39115143 43.28306103 C2.45079468 49.83202655 2.51102816 56.38098539 2.57275391 62.92993164 C2.72263059 78.87025688 2.85767369 94.81061462 2.97497559 110.75121307 C2.99885068 113.8507897 3.02573124 116.95032375 3.05371094 120.04986572 C3.09307062 124.47131976 3.12263285 128.89271355 3.14305115 133.31429482 C3.15169351 134.86055147 3.16373943 136.40679374 3.17958069 137.95299339 C3.25197493 145.22902766 3.27394493 152.01389847 1 159 C0.67 159 0.34 159 0 159 C0 106.53 0 54.06 0 0 Z " fill="#026BB4" transform="translate(249,271)"/>
<path d="M0 0 C1.32 0.33 2.64 0.66 4 1 C3.34 1.66 2.68 2.32 2 3 C1.66715709 5.91374379 1.66715709 5.91374379 1.68115234 9.37744141 C1.67110672 10.03122269 1.6610611 10.68500397 1.65071106 11.3585968 C1.61978211 13.52290962 1.60281746 15.68709823 1.5859375 17.8515625 C1.5672336 19.35087154 1.54766078 20.85016998 1.5272522 22.34945679 C1.47584247 26.29823562 1.43626432 30.24704863 1.39910889 34.19598389 C1.35912444 38.22449251 1.30800683 42.25285794 1.2578125 46.28125 C1.16094864 54.18740233 1.0765776 62.09362529 1 70 C0.67 70 0.34 70 0 70 C0 46.9 0 23.8 0 0 Z " fill="#B2BFBF" transform="translate(110,262)"/>
<path d="M0 0 C0.66 0 1.32 0 2 0 C2.19354631 5.12247464 2.37205278 10.24518042 2.53710938 15.36865234 C2.5952294 17.10870135 2.65733761 18.84862219 2.72363281 20.58837891 C2.81864139 23.1003482 2.89892759 25.61244074 2.9765625 28.125 C3.00875885 28.89303955 3.0409552 29.6610791 3.0741272 30.45239258 C3.21605474 35.66013424 2.4552543 39.99352787 1 45 C0.67 45 0.34 45 0 45 C0 30.15 0 15.3 0 0 Z " fill="#0052A1" transform="translate(249,385)"/>
<path d="M0 0 C1.32 0.33 2.64 0.66 4 1 C3.34 1.66 2.68 2.32 2 3 C1.6936141 5.73434962 1.4886664 8.38279821 1.375 11.125 C1.33632812 11.87910156 1.29765625 12.63320313 1.2578125 13.41015625 C1.16348969 15.27303184 1.08065338 17.13648255 1 19 C0.67 19 0.34 19 0 19 C0 12.73 0 6.46 0 0 Z " fill="#C6C9DE" transform="translate(110,262)"/>
<path d="M0 0 C3 4 3 4 2.85546875 6.140625 C2.23697917 8.09375 1.61848958 10.046875 1 12 C0.67 12 0.34 12 0 12 C0 8.04 0 4.08 0 0 Z " fill="#064B9C" transform="translate(249,418)"/>
</svg>
